<svg width="30" height="30" viewBox="0 0 30 30" fill="none" xmlns="http://www.w3.org/2000/svg">
<path d="M26 22C26 22.5304 25.7893 23.0391 25.4142 23.4142C25.0391 23.7893 24.5304 24 24 24H6C5.46957 24 4.96086 23.7893 4.58579 23.4142C4.21071 23.0391 4 22.5304 4 22V11C4 10.4696 4.21071 9.96086 4.58579 9.58579C4.96086 9.21071 5.46957 9 6 9H10L12 6H18L20 9H24C24.5304 9 25.0391 9.21071 25.4142 9.58579C25.7893 9.96086 26 10.4696 26 11V22Z" stroke="white" stroke-width="2" stroke-linecap="round" stroke-linejoin="round"/>
<path d="M15 21.25C17.7614 21.25 20 19.0114 20 16.25C20 13.4886 17.7614 11.25 15 11.25C12.2386 11.25 10 13.4886 10 16.25C10 19.0114 12.2386 21.25 15 21.25Z" stroke="white" stroke-width="2" stroke-linecap="round" stroke-linejoin="round"/>
</svg>
