<svg width="104" height="53" viewBox="0 0 104 53" fill="none" xmlns="http://www.w3.org/2000/svg">
<path d="M4.88125 28V1.6H19.7133V6.144H8.81725L10.0653 5.008V13.936L8.81725 12.496H18.9932V17.04H8.81725L10.0653 15.6V28H4.88125ZM31.3685 28.512C29.5658 28.512 27.9392 28.144 26.4885 27.408C25.0378 26.6613 23.8858 25.6373 23.0325 24.336C22.1792 23.024 21.7525 21.5147 21.7525 19.808C21.7525 18.1013 22.1738 16.5973 23.0165 15.296C23.8698 13.984 25.0218 12.96 26.4725 12.224C27.9338 11.4773 29.5658 11.104 31.3685 11.104C33.1818 11.104 34.8138 11.4773 36.2645 12.224C37.7152 12.96 38.8618 13.984 39.7045 15.296C40.5578 16.5973 40.9845 18.1013 40.9845 19.808C40.9845 21.5147 40.5578 23.024 39.7045 24.336C38.8618 25.6373 37.7152 26.6613 36.2645 27.408C34.8138 28.144 33.1818 28.512 31.3685 28.512ZM31.3845 24.32C32.2165 24.32 32.9738 24.128 33.6565 23.744C34.3392 23.36 34.8778 22.832 35.2725 22.16C35.6672 21.4773 35.8645 20.6933 35.8645 19.808C35.8645 18.9227 35.6672 18.144 35.2725 17.472C34.8778 16.7893 34.3392 16.256 33.6565 15.872C32.9738 15.488 32.2165 15.296 31.3845 15.296C30.5418 15.296 29.7792 15.488 29.0965 15.872C28.4245 16.256 27.8912 16.7893 27.4965 17.472C27.1018 18.144 26.9045 18.9227 26.9045 19.808C26.9045 20.6933 27.1018 21.4773 27.4965 22.16C27.8912 22.832 28.4245 23.36 29.0965 23.744C29.7792 24.128 30.5418 24.32 31.3845 24.32ZM46.0375 28V1.6H55.0295C56.8322 1.6 58.3948 1.92 59.7175 2.56C61.0508 3.18933 62.0802 4.10133 62.8055 5.296C63.5415 6.48 63.9095 7.90933 63.9095 9.584C63.9095 10.9067 63.6748 12.1013 63.2055 13.168C62.7362 14.224 62.0642 15.1147 61.1895 15.84C60.3148 16.5653 59.2535 17.104 58.0055 17.456L66.6455 28H60.0695L52.4535 18.048H51.2215V28H46.0375ZM51.2215 13.728H53.4295C54.5068 13.728 55.4188 13.5733 56.1655 13.264C56.9122 12.9547 57.4828 12.5013 57.8775 11.904C58.2828 11.296 58.4855 10.5707 58.4855 9.728C58.4855 8.448 58.0428 7.46667 57.1575 6.784C56.2828 6.09067 55.0402 5.744 53.4295 5.744H51.2215V13.728ZM76.5805 28.512C74.8098 28.512 73.2205 28.1333 71.8125 27.376C70.4152 26.608 69.3058 25.568 68.4845 24.256C67.6632 22.944 67.2525 21.4613 67.2525 19.808C67.2525 18.592 67.4818 17.456 67.9405 16.4C68.4098 15.344 69.0605 14.4213 69.8925 13.632C70.7245 12.832 71.6898 12.2133 72.7885 11.776C73.8872 11.328 75.0765 11.104 76.3565 11.104C78.0632 11.104 79.5565 11.4613 80.8365 12.176C82.1272 12.88 83.1298 13.8613 83.8445 15.12C84.5698 16.3787 84.9325 17.8453 84.9325 19.52C84.9325 19.6587 84.9272 19.7813 84.9165 19.888C84.9165 19.984 84.9005 20.1707 84.8685 20.448H72.3085C72.3085 21.28 72.4952 22.0053 72.8685 22.624C73.2525 23.2427 73.7858 23.728 74.4685 24.08C75.1512 24.4213 75.9458 24.592 76.8525 24.592C77.7058 24.592 78.4578 24.4267 79.1085 24.096C79.7698 23.7653 80.4045 23.2373 81.0125 22.512L84.5485 24.288C83.7805 25.6107 82.6925 26.6453 81.2845 27.392C79.8765 28.1387 78.3085 28.512 76.5805 28.512ZM72.4845 17.728H80.1005C79.9938 17.0987 79.7645 16.5547 79.4125 16.096C79.0712 15.6373 78.6338 15.2853 78.1005 15.04C77.5672 14.7947 76.9645 14.672 76.2925 14.672C75.5778 14.672 74.9485 14.7947 74.4045 15.04C73.8605 15.2853 73.4232 15.6373 73.0925 16.096C72.7618 16.5547 72.5592 17.0987 72.4845 17.728ZM93.8798 28.512C92.4931 28.512 91.2504 28.2933 90.1518 27.856C89.0638 27.4187 88.1571 26.7787 87.4318 25.936L89.4958 22.64C90.1784 23.3653 90.8931 23.92 91.6398 24.304C92.3864 24.688 93.1331 24.88 93.8798 24.88C94.2958 24.88 94.6531 24.8107 94.9518 24.672C95.2611 24.5333 95.5011 24.336 95.6718 24.08C95.8531 23.8133 95.9438 23.4933 95.9438 23.12C95.9438 22.6933 95.8211 22.3573 95.5758 22.112C95.3411 21.8667 94.9784 21.6427 94.4878 21.44C93.9971 21.2267 93.3624 20.96 92.5838 20.64C91.9224 20.3627 91.2878 20.048 90.6798 19.696C90.0718 19.344 89.5758 18.896 89.1918 18.352C88.8184 17.808 88.6318 17.12 88.6318 16.288C88.6318 15.2747 88.9144 14.384 89.4798 13.616C90.0451 12.8373 90.8238 12.2293 91.8158 11.792C92.8184 11.3547 93.9704 11.136 95.2718 11.136C96.0824 11.136 96.9304 11.2587 97.8158 11.504C98.7118 11.7493 99.6664 12.1227 100.68 12.624L98.9998 15.776C97.6238 14.8907 96.3918 14.448 95.3038 14.448C94.6958 14.448 94.2104 14.5813 93.8478 14.848C93.4851 15.1147 93.3038 15.4507 93.3038 15.856C93.3038 16.24 93.4904 16.576 93.8638 16.864C94.2478 17.1413 94.7118 17.392 95.2558 17.616C95.8104 17.8293 96.3384 18.0267 96.8398 18.208C97.6611 18.5067 98.3864 18.8373 99.0158 19.2C99.6558 19.5627 100.157 20.0373 100.52 20.624C100.882 21.2 101.064 21.9733 101.064 22.944C101.064 24.128 100.776 25.136 100.2 25.968C99.6344 26.7893 98.8131 27.4187 97.7358 27.856C96.6691 28.2933 95.3838 28.512 93.8798 28.512Z" fill="url(#paint0_linear_61_3376)"/>
<path d="M2.23299 49V36.625H8.69799V37.9675H3.26799L3.75549 37.57V42.805L3.26799 42.13H8.36049V43.465H3.26799L3.75549 42.79V49H2.23299ZM14.4253 49.24C13.6103 49.24 12.8753 49.0675 12.2203 48.7225C11.5703 48.3775 11.0528 47.8975 10.6678 47.2825C10.2878 46.6675 10.0978 45.96 10.0978 45.16C10.0978 44.355 10.2878 43.6475 10.6678 43.0375C11.0528 42.4225 11.5703 41.9425 12.2203 41.5975C12.8753 41.2525 13.6103 41.08 14.4253 41.08C15.2403 41.08 15.9728 41.2525 16.6228 41.5975C17.2778 41.9425 17.7953 42.4225 18.1753 43.0375C18.5603 43.6475 18.7528 44.355 18.7528 45.16C18.7528 45.96 18.5603 46.6675 18.1753 47.2825C17.7953 47.8975 17.2778 48.3775 16.6228 48.7225C15.9728 49.0675 15.2403 49.24 14.4253 49.24ZM14.4328 47.9725C14.9678 47.9725 15.4478 47.8525 15.8728 47.6125C16.2978 47.3725 16.6328 47.04 16.8778 46.615C17.1228 46.19 17.2453 45.705 17.2453 45.16C17.2453 44.61 17.1228 44.125 16.8778 43.705C16.6328 43.28 16.2978 42.9475 15.8728 42.7075C15.4478 42.4675 14.9678 42.3475 14.4328 42.3475C13.8928 42.3475 13.4103 42.4675 12.9853 42.7075C12.5603 42.9475 12.2253 43.28 11.9803 43.705C11.7353 44.125 11.6128 44.61 11.6128 45.16C11.6128 45.705 11.7353 46.19 11.9803 46.615C12.2253 47.04 12.5603 47.3725 12.9853 47.6125C13.4103 47.8525 13.8928 47.9725 14.4328 47.9725ZM21.1864 49V41.32H22.6414V42.445C22.8964 42 23.2214 41.6625 23.6164 41.4325C24.0114 41.1975 24.4589 41.08 24.9589 41.08C25.1989 41.08 25.4414 41.11 25.6864 41.17C25.9364 41.225 26.1514 41.3 26.3314 41.395L25.7314 42.625C25.5764 42.54 25.3964 42.4725 25.1914 42.4225C24.9864 42.3725 24.7939 42.3475 24.6139 42.3475C24.2789 42.3475 23.9589 42.435 23.6539 42.61C23.3539 42.78 23.1089 43.0025 22.9189 43.2775C22.7339 43.5525 22.6414 43.8475 22.6414 44.1625V49H21.1864ZM31.4298 49.24C30.1948 49.24 29.3098 48.975 28.7748 48.445C28.2398 47.91 27.9723 47.0225 27.9723 45.7825V41.32H29.4273V45.4825C29.4273 46.4025 29.5798 47.0575 29.8848 47.4475C30.1898 47.8375 30.7048 48.0325 31.4298 48.0325C32.1598 48.0325 32.6773 47.8375 32.9823 47.4475C33.2873 47.0575 33.4398 46.4025 33.4398 45.4825V41.32H34.8948V45.7825C34.8948 47.0225 34.6273 47.91 34.0923 48.445C33.5573 48.975 32.6698 49.24 31.4298 49.24ZM37.8124 49V41.32H39.2674V42.31C39.5924 41.9 39.9599 41.5925 40.3699 41.3875C40.7799 41.1825 41.2349 41.08 41.7349 41.08C42.3549 41.08 42.8999 41.2225 43.3699 41.5075C43.8399 41.7875 44.1674 42.17 44.3524 42.655C44.6724 42.165 45.0574 41.78 45.5074 41.5C45.9574 41.22 46.4849 41.08 47.0899 41.08C47.6399 41.08 48.1274 41.1925 48.5524 41.4175C48.9774 41.6425 49.3124 41.9675 49.5574 42.3925C49.8024 42.8175 49.9249 43.3325 49.9249 43.9375V49H48.4699V44.3425C48.4699 43.7025 48.3024 43.195 47.9674 42.82C47.6324 42.445 47.1874 42.2575 46.6324 42.2575C46.2474 42.2575 45.8999 42.3425 45.5899 42.5125C45.2849 42.6775 45.0424 42.895 44.8624 43.165C44.6874 43.43 44.5999 43.71 44.5999 44.005V49H43.1449V44.245C43.1449 43.64 42.9799 43.1575 42.6499 42.7975C42.3199 42.4375 41.8799 42.2575 41.3299 42.2575C40.9449 42.2575 40.5949 42.34 40.2799 42.505C39.9699 42.665 39.7224 42.875 39.5374 43.135C39.3574 43.395 39.2674 43.6675 39.2674 43.9525V49H37.8124ZM57.1646 49V36.625H60.6746C61.4946 36.625 62.2046 36.7675 62.8046 37.0525C63.4046 37.3375 63.8671 37.7475 64.1921 38.2825C64.5221 38.8125 64.6871 39.45 64.6871 40.195C64.6871 40.845 64.5596 41.4225 64.3046 41.9275C64.0496 42.4325 63.6846 42.845 63.2096 43.165C62.7396 43.485 62.1771 43.695 61.5221 43.795L65.6171 49H63.6821L59.8496 43.9525H58.6871V49H57.1646ZM58.6871 42.655H60.2621C60.8521 42.655 61.3596 42.5575 61.7846 42.3625C62.2096 42.1675 62.5371 41.89 62.7671 41.53C62.9971 41.165 63.1121 40.7325 63.1121 40.2325C63.1121 39.4875 62.8596 38.905 62.3546 38.485C61.8546 38.065 61.1571 37.855 60.2621 37.855H58.6871V42.655ZM70.7757 49.24C69.9707 49.24 69.2482 49.0625 68.6082 48.7075C67.9682 48.3525 67.4632 47.87 67.0932 47.26C66.7232 46.645 66.5382 45.9525 66.5382 45.1825C66.5382 44.6125 66.6432 44.08 66.8532 43.585C67.0632 43.09 67.3557 42.655 67.7307 42.28C68.1057 41.9 68.5407 41.605 69.0357 41.395C69.5307 41.185 70.0607 41.08 70.6257 41.08C71.4257 41.08 72.1257 41.245 72.7257 41.575C73.3307 41.905 73.8007 42.365 74.1357 42.955C74.4757 43.545 74.6457 44.23 74.6457 45.01C74.6457 45.075 74.6432 45.1275 74.6382 45.1675C74.6332 45.2075 74.6232 45.26 74.6082 45.325H68.0082C68.0082 45.86 68.1282 46.3325 68.3682 46.7425C68.6132 47.1525 68.9482 47.475 69.3732 47.71C69.8032 47.94 70.2957 48.055 70.8507 48.055C71.3757 48.055 71.8457 47.9475 72.2607 47.7325C72.6757 47.5175 73.0357 47.1975 73.3407 46.7725L74.4057 47.3275C74.0407 47.9325 73.5382 48.4025 72.8982 48.7375C72.2632 49.0725 71.5557 49.24 70.7757 49.24ZM68.0832 44.2525H73.1832C73.1132 43.8575 72.9582 43.5125 72.7182 43.2175C72.4832 42.9175 72.1857 42.685 71.8257 42.52C71.4707 42.35 71.0782 42.265 70.6482 42.265C70.1982 42.265 69.7907 42.3475 69.4257 42.5125C69.0657 42.6725 68.7682 42.9025 68.5332 43.2025C68.3032 43.4975 68.1532 43.8475 68.0832 44.2525ZM79.0591 49.24C78.4191 49.24 77.8516 49.1025 77.3566 48.8275C76.8666 48.5475 76.4766 48.15 76.1866 47.635L76.8841 46.735C77.1491 47.18 77.4691 47.525 77.8441 47.77C78.2191 48.015 78.6216 48.1375 79.0516 48.1375C79.3316 48.1375 79.5841 48.0825 79.8091 47.9725C80.0391 47.8625 80.2216 47.705 80.3566 47.5C80.4916 47.29 80.5591 47.0425 80.5591 46.7575C80.5591 46.4825 80.4891 46.2675 80.3491 46.1125C80.2141 45.9525 80.0116 45.8125 79.7416 45.6925C79.4766 45.5725 79.1441 45.435 78.7441 45.28C78.4241 45.15 78.1141 45.0025 77.8141 44.8375C77.5141 44.6725 77.2666 44.465 77.0716 44.215C76.8816 43.96 76.7866 43.6375 76.7866 43.2475C76.7866 42.8275 76.8991 42.455 77.1241 42.13C77.3541 41.805 77.6691 41.55 78.0691 41.365C78.4691 41.18 78.9241 41.0875 79.4341 41.0875C79.8491 41.0875 80.2516 41.17 80.6416 41.335C81.0316 41.5 81.4016 41.7375 81.7516 42.0475L81.1666 42.9325C80.6466 42.3825 80.0716 42.1075 79.4416 42.1075C79.0616 42.1075 78.7541 42.205 78.5191 42.4C78.2841 42.59 78.1666 42.8375 78.1666 43.1425C78.1666 43.3775 78.2516 43.575 78.4216 43.735C78.5916 43.89 78.8091 44.025 79.0741 44.14C79.3391 44.255 79.6141 44.3675 79.8991 44.4775C80.3291 44.6375 80.7041 44.8025 81.0241 44.9725C81.3491 45.1425 81.6016 45.3625 81.7816 45.6325C81.9616 45.8975 82.0516 46.255 82.0516 46.705C82.0516 47.23 81.9266 47.6825 81.6766 48.0625C81.4316 48.4425 81.0841 48.735 80.6341 48.94C80.1841 49.14 79.6591 49.24 79.0591 49.24ZM88.1488 49.24C87.3438 49.24 86.6213 49.0625 85.9813 48.7075C85.3413 48.3525 84.8363 47.87 84.4663 47.26C84.0963 46.645 83.9113 45.9525 83.9113 45.1825C83.9113 44.6125 84.0163 44.08 84.2263 43.585C84.4363 43.09 84.7288 42.655 85.1038 42.28C85.4788 41.9 85.9138 41.605 86.4088 41.395C86.9038 41.185 87.4338 41.08 87.9988 41.08C88.7988 41.08 89.4988 41.245 90.0988 41.575C90.7038 41.905 91.1738 42.365 91.5088 42.955C91.8488 43.545 92.0188 44.23 92.0188 45.01C92.0188 45.075 92.0163 45.1275 92.0113 45.1675C92.0063 45.2075 91.9963 45.26 91.9813 45.325H85.3813C85.3813 45.86 85.5013 46.3325 85.7413 46.7425C85.9863 47.1525 86.3213 47.475 86.7463 47.71C87.1763 47.94 87.6688 48.055 88.2238 48.055C88.7488 48.055 89.2188 47.9475 89.6338 47.7325C90.0488 47.5175 90.4088 47.1975 90.7138 46.7725L91.7788 47.3275C91.4138 47.9325 90.9113 48.4025 90.2713 48.7375C89.6363 49.0725 88.9288 49.24 88.1488 49.24ZM85.4563 44.2525H90.5563C90.4863 43.8575 90.3313 43.5125 90.0913 43.2175C89.8563 42.9175 89.5588 42.685 89.1988 42.52C88.8438 42.35 88.4513 42.265 88.0213 42.265C87.5713 42.265 87.1638 42.3475 86.7988 42.5125C86.4388 42.6725 86.1413 42.9025 85.9063 43.2025C85.6763 43.4975 85.5263 43.8475 85.4563 44.2525ZM94.414 52.9V41.32H95.869V42.715C96.179 42.2 96.5965 41.8 97.1215 41.515C97.6515 41.225 98.234 41.08 98.869 41.08C99.609 41.08 100.266 41.2575 100.841 41.6125C101.421 41.9675 101.879 42.4525 102.214 43.0675C102.549 43.6775 102.716 44.375 102.716 45.16C102.716 45.935 102.549 46.6325 102.214 47.2525C101.884 47.8675 101.431 48.3525 100.856 48.7075C100.281 49.0625 99.629 49.24 98.899 49.24C98.269 49.24 97.689 49.0925 97.159 48.7975C96.629 48.5025 96.199 48.09 95.869 47.56V52.9H94.414ZM98.5165 47.9875C99.0365 47.9875 99.499 47.8675 99.904 47.6275C100.309 47.3825 100.626 47.0475 100.856 46.6225C101.086 46.1975 101.201 45.7125 101.201 45.1675C101.201 44.6175 101.084 44.13 100.849 43.705C100.619 43.275 100.301 42.94 99.8965 42.7C99.4965 42.455 99.0365 42.3325 98.5165 42.3325C97.9965 42.3325 97.5315 42.455 97.1215 42.7C96.7165 42.94 96.3965 43.2725 96.1615 43.6975C95.9315 44.1225 95.8165 44.61 95.8165 45.16C95.8165 45.71 95.9315 46.1975 96.1615 46.6225C96.3965 47.0475 96.7165 47.3825 97.1215 47.6275C97.5315 47.8675 97.9965 47.9875 98.5165 47.9875Z" fill="url(#paint1_linear_61_3376)"/>
<defs>
<linearGradient id="paint0_linear_61_3376" x1="0" y1="18" x2="104" y2="18" gradientUnits="userSpaceOnUse">
<stop stop-color="#1D1B20"/>
<stop offset="0.35" stop-color="#781038"/>
<stop offset="1" stop-color="#FE005C"/>
</linearGradient>
<linearGradient id="paint1_linear_61_3376" x1="0" y1="44.5" x2="104" y2="44.5" gradientUnits="userSpaceOnUse">
<stop stop-color="#1D1B20"/>
<stop offset="0.35" stop-color="#781038"/>
<stop offset="1" stop-color="#FE005C"/>
</linearGradient>
</defs>
</svg>
